<?xml version="1.0" encoding="UTF-8" standalone="no"?>
<!-- Created with Inkscape (http://www.inkscape.org/) -->

<svg
   width="129.39467mm"
   height="42.898087mm"
   viewBox="0 0 129.39467 42.898087"
   version="1.1"
   id="svg5"
   inkscape:version="1.1.1 (c3084ef, 2021-09-22)"
   sodipodi:docname="oh-logo.svg"
   xmlns:inkscape="http://www.inkscape.org/namespaces/inkscape"
   xmlns:sodipodi="http://sodipodi.sourceforge.net/DTD/sodipodi-0.dtd"
   xmlns="http://www.w3.org/2000/svg"
   xmlns:svg="http://www.w3.org/2000/svg">
  <sodipodi:namedview
     id="namedview7"
     pagecolor="#ffffff"
     bordercolor="#999999"
     borderopacity="1"
     inkscape:pageshadow="0"
     inkscape:pageopacity="0"
     inkscape:pagecheckerboard="0"
     inkscape:document-units="mm"
     showgrid="false"
     inkscape:snap-bbox="false"
     inkscape:snap-intersection-paths="true"
     inkscape:snap-object-midpoints="true"
     inkscape:snap-center="true"
     inkscape:snap-text-baseline="true"
     fit-margin-top="0"
     fit-margin-left="0"
     fit-margin-right="0"
     fit-margin-bottom="0"
     inkscape:zoom="0.19388953"
     inkscape:cx="-482.23337"
     inkscape:cy="-12.89394"
     inkscape:window-width="1312"
     inkscape:window-height="847"
     inkscape:window-x="55"
     inkscape:window-y="25"
     inkscape:window-maximized="0"
     inkscape:current-layer="layer1" />
  <defs
     id="defs2" />
  <g
     inkscape:label="Layer 1"
     inkscape:groupmode="layer"
     id="layer1"
     transform="translate(-73.470968,-68.15723)">
    <g
       id="g14861">
      <g
         id="g3605">
        <rect
           style="fill:#ffffff;stroke:#000000;stroke-width:1.41111;stroke-linecap:square;stroke-miterlimit:4;stroke-dasharray:none;stroke-opacity:1;paint-order:fill markers stroke"
           id="rect3510"
           width="6.6176338"
           height="6.6176338"
           x="166.15689"
           y="68.862785"
           ry="1.9220066" />
        <rect
           style="fill:#ffffff;stroke:#000000;stroke-width:1.41111;stroke-linecap:square;stroke-miterlimit:4;stroke-dasharray:none;stroke-opacity:1;paint-order:fill markers stroke"
           id="rect3000"
           width="6.6176338"
           height="6.6176338"
           x="128.58656"
           y="68.862785"
           ry="1.9220066" />
        <g
           id="g3597"
           transform="translate(0,0.19183773)">
          <rect
             style="fill:#ffffff;stroke:#000000;stroke-width:1.41111;stroke-linecap:square;stroke-miterlimit:4;stroke-dasharray:none;stroke-opacity:1;paint-order:fill markers stroke"
             id="rect2034"
             width="49.211304"
             height="36.788734"
             x="125.94075"
             y="73.363754" />
          <path
             id="path2309"
             style="fill:#ffffff;stroke:#000000;stroke-width:1.42206;stroke-linecap:square;stroke-miterlimit:4;stroke-dasharray:none;stroke-opacity:1;paint-order:fill markers stroke"
             d="m 122.75949,73.363996 c -1.91894,0 -3.46387,1.544418 -3.46387,3.463354 v 29.86123 c 0,1.91893 1.54493,3.46387 3.46387,3.46387 h 3.1812 V 73.363996 Z" />
          <path
             id="path2400"
             style="fill:#ffffff;stroke:#000000;stroke-width:1.42206;stroke-linecap:square;stroke-miterlimit:4;stroke-dasharray:none;stroke-opacity:1;paint-order:fill markers stroke"
             d="m 178.33325,73.363754 c 1.91894,0 3.46387,1.544418 3.46387,3.463354 v 29.861232 c 0,1.91893 -1.54493,3.46387 -3.46387,3.46387 h -3.1812 V 73.363754 Z" />
        </g>
      </g>
      <g
         id="g14842">
        <path
           id="path1052"
           style="fill:#000000;stroke:none;stroke-width:1.41111;stroke-linecap:square;stroke-miterlimit:4;stroke-dasharray:none;stroke-opacity:1;paint-order:markers stroke fill"
           d="M 90.614107,74.806804 A 17.143177,17.143177 0 0 0 73.470968,91.949941 17.143177,17.143177 0 0 0 90.614107,109.09308 17.143177,17.143177 0 0 0 107.75724,91.949941 17.143177,17.143177 0 0 0 90.614107,74.806804 Z m 0,6.056992 A 11.085959,11.085959 0 0 1 101.69973,91.949941 11.085959,11.085959 0 0 1 90.614107,103.03557 11.085959,11.085959 0 0 1 79.52796,91.949941 11.085959,11.085959 0 0 1 90.614107,80.863796 Z" />
        <rect
           style="fill:#000000;stroke:none;stroke-width:1.07508;stroke-linecap:square;stroke-miterlimit:4;stroke-dasharray:none;stroke-opacity:1;paint-order:markers stroke fill"
           id="rect1418"
           width="43.162254"
           height="14.694151"
           x="104.54967"
           y="84.602867" />
        <rect
           style="fill:#000000;stroke:none;stroke-width:1.18885;stroke-linecap:square;stroke-miterlimit:4;stroke-dasharray:none;stroke-opacity:1;paint-order:markers stroke fill"
           id="rect1544"
           width="9.4816837"
           height="34.286354"
           x="143.57356"
           y="74.806763"
           ry="0" />
        <rect
           style="fill:#000000;stroke:none;stroke-width:1.2302;stroke-linecap:square;stroke-miterlimit:4;stroke-dasharray:none;stroke-opacity:1;paint-order:markers stroke fill"
           id="rect1544-5"
           width="13.35832"
           height="26.058372"
           x="134.35361"
           y="78.920753"
           ry="4.2177382" />
      </g>
      <path
         id="rect2446"
         style="fill:#000000;stroke:none;stroke-width:1.32754;stroke-linecap:square;stroke-miterlimit:4;stroke-dasharray:none;stroke-opacity:1;paint-order:markers stroke fill"
         d="m 193.34065,82.42448 a 9.525175,9.525175 0 0 0 -0.0408,0.0015 h -11.50266 v 19.04742 h 11.50266 a 9.525175,9.525175 0 0 0 0.0408,0.002 9.525175,9.525175 0 0 0 0.0408,-0.002 h 0.13333 v -0.005 a 9.525175,9.525175 0 0 0 9.35085,-9.518284 9.525175,9.525175 0 0 0 -9.35085,-9.52345 v -5.16e-4 h -0.0517 a 9.525175,9.525175 0 0 0 -0.12247,-0.0015 z m 0,3.294372 a 6.2310099,6.2310099 0 0 1 6.23063,6.231144 6.2310099,6.2310099 0 0 1 -6.23063,6.230628 6.2310099,6.2310099 0 0 1 -6.23114,-6.230628 6.2310099,6.2310099 0 0 1 6.23114,-6.231144 z" />
      <text
         xml:space="preserve"
         style="font-style:normal;font-weight:normal;font-size:10.5833px;line-height:1.25;font-family:sans-serif;fill:#000000;fill-opacity:1;stroke:none;stroke-width:0.264583"
         x="55.302944"
         y="151.1144"
         id="text4027"><tspan
           sodipodi:role="line"
           id="tspan4025"
           style="stroke-width:0.264583"
           x="55.302944"
           y="151.1144" /></text>
      <text
         xml:space="preserve"
         style="font-style:normal;font-weight:normal;font-size:49.3309px;line-height:1.25;font-family:sans-serif;fill:#000000;fill-opacity:1;stroke:none;stroke-width:0.256931"
         x="148.62892"
         y="111.85546"
         id="text7239"
         transform="scale(1.0297811,0.97108017)"><tspan
           sodipodi:role="line"
           id="tspan7237"
           style="font-style:normal;font-variant:normal;font-weight:normal;font-stretch:normal;font-size:49.3309px;font-family:Broadway;-inkscape-font-specification:'Broadway, Normal';font-variant-ligatures:normal;font-variant-caps:normal;font-variant-numeric:normal;font-variant-east-asian:normal;fill:#000000;stroke-width:0.256931"
           x="148.62892"
           y="111.85546">H</tspan></text>
    </g>
  </g>
</svg>
