<?xml version="1.0" encoding="UTF-8" standalone="no"?>
<!-- Created with Inkscape (http://www.inkscape.org/) -->

<svg
   width="129.39467mm"
   height="42.898087mm"
   viewBox="0 0 129.39467 42.898087"
   version="1.1"
   id="svg5"
   inkscape:version="1.1.1 (c3084ef, 2021-09-22)"
   sodipodi:docname="oh-logo.svg"
   xmlns:inkscape="http://www.inkscape.org/namespaces/inkscape"
   xmlns:sodipodi="http://sodipodi.sourceforge.net/DTD/sodipodi-0.dtd"
   xmlns="http://www.w3.org/2000/svg"
   xmlns:svg="http://www.w3.org/2000/svg">
  <sodipodi:namedview
     id="namedview7"
     pagecolor="#ffffff"
     bordercolor="#999999"
     borderopacity="1"
     inkscape:pageshadow="0"
     inkscape:pageopacity="0"
     inkscape:pagecheckerboard="0"
     inkscape:document-units="mm"
     showgrid="false"
     inkscape:snap-bbox="false"
     inkscape:snap-intersection-paths="true"
     inkscape:snap-object-midpoints="true"
     inkscape:snap-center="true"
     inkscape:snap-text-baseline="true"
     fit-margin-top="0"
     fit-margin-left="0"
     fit-margin-right="0"
     fit-margin-bottom="0"
     inkscape:zoom="0.78485846"
     inkscape:cx="381.59747"
     inkscape:cy="286.03884"
     inkscape:window-width="1312"
     inkscape:window-height="847"
     inkscape:window-x="55"
     inkscape:window-y="25"
     inkscape:window-maximized="0"
     inkscape:current-layer="g14861" />
  <defs
     id="defs2" />
  <g
     inkscape:label="Layer 1"
     inkscape:groupmode="layer"
     id="layer1"
     transform="translate(-73.470968,-68.15723)">
    <g
       id="g14861">
      <g
         id="g3605">
        <rect
           style="fill:#ffffff;stroke:#000000;stroke-width:1.41111;stroke-linecap:square;stroke-miterlimit:4;stroke-dasharray:none;stroke-opacity:1;paint-order:fill markers stroke"
           id="rect3510"
           width="6.6176338"
           height="6.6176338"
           x="166.15689"
           y="68.862785"
           ry="1.9220066" />
        <rect
           style="fill:#ffffff;stroke:#000000;stroke-width:1.41111;stroke-linecap:square;stroke-miterlimit:4;stroke-dasharray:none;stroke-opacity:1;paint-order:fill markers stroke"
           id="rect3000"
           width="6.6176338"
           height="6.6176338"
           x="128.58656"
           y="68.862785"
           ry="1.9220066" />
        <g
           id="g3597"
           transform="translate(0,0.19183773)">
          <rect
             style="fill:#ffffff;stroke:#000000;stroke-width:1.41111;stroke-linecap:square;stroke-miterlimit:4;stroke-dasharray:none;stroke-opacity:1;paint-order:fill markers stroke"
             id="rect2034"
             width="49.211304"
             height="36.788734"
             x="125.94075"
             y="73.363754" />
          <path
             id="path2309"
             style="fill:#ffffff;stroke:#000000;stroke-width:1.42206;stroke-linecap:square;stroke-miterlimit:4;stroke-dasharray:none;stroke-opacity:1;paint-order:fill markers stroke"
             d="m 122.75949,73.363996 c -1.91894,0 -3.46387,1.544418 -3.46387,3.463354 v 29.86123 c 0,1.91893 1.54493,3.46387 3.46387,3.46387 h 3.1812 V 73.363996 Z" />
          <path
             id="path2400"
             style="fill:#ffffff;stroke:#000000;stroke-width:1.42206;stroke-linecap:square;stroke-miterlimit:4;stroke-dasharray:none;stroke-opacity:1;paint-order:fill markers stroke"
             d="m 178.33325,73.363754 c 1.91894,0 3.46387,1.544418 3.46387,3.463354 v 29.861232 c 0,1.91893 -1.54493,3.46387 -3.46387,3.46387 h -3.1812 V 73.363754 Z" />
        </g>
      </g>
      <g
         id="g14842">
        <path
           id="path1052"
           style="fill:#000000;stroke:none;stroke-width:1.41111;stroke-linecap:square;stroke-miterlimit:4;stroke-dasharray:none;stroke-opacity:1;paint-order:markers stroke fill"
           d="M 90.614107,74.806804 A 17.143177,17.143177 0 0 0 73.470968,91.949941 17.143177,17.143177 0 0 0 90.614107,109.09308 17.143177,17.143177 0 0 0 107.75724,91.949941 17.143177,17.143177 0 0 0 90.614107,74.806804 Z m 0,6.056992 A 11.085959,11.085959 0 0 1 101.69973,91.949941 11.085959,11.085959 0 0 1 90.614107,103.03557 11.085959,11.085959 0 0 1 79.52796,91.949941 11.085959,11.085959 0 0 1 90.614107,80.863796 Z" />
        <rect
           style="fill:#000000;stroke:none;stroke-width:1.07508;stroke-linecap:square;stroke-miterlimit:4;stroke-dasharray:none;stroke-opacity:1;paint-order:markers stroke fill"
           id="rect1418"
           width="43.162254"
           height="14.694151"
           x="104.54967"
           y="84.602867" />
        <rect
           style="fill:#000000;stroke:none;stroke-width:1.18885;stroke-linecap:square;stroke-miterlimit:4;stroke-dasharray:none;stroke-opacity:1;paint-order:markers stroke fill"
           id="rect1544"
           width="9.4816837"
           height="34.286354"
           x="143.57356"
           y="74.806763"
           ry="0" />
        <rect
           style="fill:#000000;stroke:none;stroke-width:1.2302;stroke-linecap:square;stroke-miterlimit:4;stroke-dasharray:none;stroke-opacity:1;paint-order:markers stroke fill"
           id="rect1544-5"
           width="13.35832"
           height="26.058372"
           x="134.35361"
           y="78.920753"
           ry="4.2177382" />
      </g>
      <path
         id="rect2446"
         style="fill:#000000;stroke:none;stroke-width:1.32754;stroke-linecap:square;stroke-miterlimit:4;stroke-dasharray:none;stroke-opacity:1;paint-order:markers stroke fill"
         d="m 193.34065,82.42448 a 9.525175,9.525175 0 0 0 -0.0408,0.0015 h -11.50266 v 19.04742 h 11.50266 a 9.525175,9.525175 0 0 0 0.0408,0.002 9.525175,9.525175 0 0 0 0.0408,-0.002 h 0.13333 v -0.005 a 9.525175,9.525175 0 0 0 9.35085,-9.518284 9.525175,9.525175 0 0 0 -9.35085,-9.52345 v -5.16e-4 h -0.0517 a 9.525175,9.525175 0 0 0 -0.12247,-0.0015 z m 0,3.294372 a 6.2310099,6.2310099 0 0 1 6.23063,6.231144 6.2310099,6.2310099 0 0 1 -6.23063,6.230628 6.2310099,6.2310099 0 0 1 -6.23114,-6.230628 6.2310099,6.2310099 0 0 1 6.23114,-6.231144 z" />
      <text
         xml:space="preserve"
         style="font-style:normal;font-weight:normal;font-size:10.5833px;line-height:1.25;font-family:sans-serif;fill:#000000;fill-opacity:1;stroke:none;stroke-width:0.264583"
         x="55.302944"
         y="151.1144"
         id="text4027"><tspan
           sodipodi:role="line"
           id="tspan4025"
           style="stroke-width:0.264583"
           x="55.302944"
           y="151.1144" /></text>
      <g
         aria-label="H"
         transform="scale(1.0297811,0.97108017)"
         id="text7239"
         style="font-size:49.3309px;line-height:1.25;stroke-width:0.256931">
        <path
           d="m 155.83123,96.41489 q 0.34532,0 0.34532,0.394647 0,0.345316 -0.34532,0.345316 -0.39464,0 -0.39464,-0.345316 0,-0.394647 0.39464,-0.394647 z m -2.21989,-12.382056 q 0.39465,0 0.39465,0.345317 0,0.394647 -0.39465,0.394647 -0.34531,0 -0.34531,-0.394647 0,-0.345317 0.34531,-0.345317 z m 0,-3.502493 q 0.39465,0 0.39465,0.394647 0,0.345316 -0.39465,0.345316 -0.34531,0 -0.34531,-0.345316 0,-0.394647 0.34531,-0.394647 z m 5.08108,15.884549 q 0.39465,0 0.39465,0.394647 0,0.345316 -0.39465,0.345316 -0.34531,0 -0.34531,-0.345316 0,-0.394647 0.34531,-0.394647 z m 3.20651,-0.09866 q 0.34532,0 0.34532,0.394647 0,0.345317 -0.34532,0.345317 -0.39464,0 -0.39464,-0.345317 0,-0.394647 0.39464,-0.394647 z m 2.12123,7.942272 q 0.39465,0 0.39465,0.34532 0,0.39465 -0.39465,0.39465 -0.34531,0 -0.34531,-0.39465 0,-0.34532 0.34531,-0.34532 z m 0,3.40383 q 0.39465,0 0.39465,0.34532 0,0.39465 -0.39465,0.39465 -0.34531,0 -0.34531,-0.39465 0,-0.34532 0.34531,-0.34532 z M 153.61134,91.087153 q 0.39465,0 0.39465,0.345316 0,0.394647 -0.39465,0.394647 -0.34531,0 -0.34531,-0.394647 0,-0.345316 0.34531,-0.345316 z m 0,13.171347 q 0.39465,0 0.39465,0.34532 0,0.39465 -0.39465,0.39465 -0.34531,0 -0.34531,-0.39465 0,-0.34532 0.34531,-0.34532 z m 0,-3.00918 q 0.39465,0 0.39465,0.39465 0,0.34531 -0.39465,0.34531 -0.34531,0 -0.34531,-0.34531 0,-0.39465 0.34531,-0.39465 z m 0,6.41301 q 0.39465,0 0.39465,0.34532 0,0.39465 -0.39465,0.39465 -0.34531,0 -0.34531,-0.39465 0,-0.34532 0.34531,-0.34532 z m 0,-20.127002 q 0.39465,0 0.39465,0.394647 0,0.345317 -0.39465,0.345317 -0.34531,0 -0.34531,-0.345317 0,-0.394647 0.34531,-0.394647 z m 10.40882,13.713992 q 0.39465,0 0.39465,0.39465 0,0.34531 -0.39465,0.34531 -0.34531,0 -0.34531,-0.34531 0,-0.39465 0.34531,-0.39465 z m -10.40882,-3.403834 q 0.39465,0 0.39465,0.394647 0,0.345316 -0.39465,0.345316 -0.34531,0 -0.34531,-0.345316 0,-0.394647 0.34531,-0.394647 z m 0,-3.255839 q 0.39465,0 0.39465,0.394647 0,0.345316 -0.39465,0.345316 -0.34531,0 -0.34531,-0.345316 0,-0.394647 0.34531,-0.394647 z m 10.40882,0 q 0.39465,0 0.39465,0.394647 0,0.345316 -0.39465,0.345316 -0.34531,0 -0.34531,-0.345316 0,-0.394647 0.34531,-0.394647 z m 0,-14.059306 q 0.39465,0 0.39465,0.394647 0,0.345316 -0.39465,0.345316 -0.34531,0 -0.34531,-0.345316 0,-0.394647 0.34531,-0.394647 z m 0,7.004987 q 0.39465,0 0.39465,0.394647 0,0.345317 -0.39465,0.345317 -0.34531,0 -0.34531,-0.345317 0,-0.394647 0.34531,-0.394647 z m 0,3.551825 q 0.39465,0 0.39465,0.345316 0,0.394647 -0.39465,0.394647 -0.34531,0 -0.34531,-0.394647 0,-0.345316 0.34531,-0.345316 z m 0,6.758333 q 0.39465,0 0.39465,0.394647 0,0.345316 -0.39465,0.345316 -0.34531,0 -0.34531,-0.345316 0,-0.394647 0.34531,-0.394647 z m 3.89714,-20.32433 v 34.334304 h -7.20231 v -10.8528 h -3.60115 v 10.8528 h -7.25165 v -5.4264 -21.705593 -7.202311 h 7.25165 v 16.229865 h 3.60115 V 77.521156 Z m -14.30596,31.473114 q 0.39465,0 0.69063,-0.29599 0.29599,-0.29598 0.29599,-0.69063 0,-0.39465 -0.29599,-0.6413 -0.29598,-0.29599 -0.69063,-0.29599 -0.39464,0 -0.69063,0.29599 -0.24665,0.24665 -0.24665,0.6413 0,0.39465 0.24665,0.69063 0.29599,0.29599 0.69063,0.29599 z m 0,-3.40383 q 0.39465,0 0.69063,-0.29599 0.29599,-0.29598 0.29599,-0.69063 0,-0.39465 -0.29599,-0.6413 -0.29598,-0.29599 -0.69063,-0.29599 -0.93728,0 -0.93728,0.93729 0,0.39465 0.24665,0.69063 0.29599,0.29599 0.69063,0.29599 z m 0,-2.95986 q 0.39465,0 0.69063,-0.29598 0.29599,-0.29599 0.29599,-0.69063 0,-0.39465 -0.29599,-0.64131 -0.29598,-0.29598 -0.69063,-0.29598 -0.93728,0 -0.93728,0.93729 0,0.39464 0.24665,0.69063 0.29599,0.29598 0.69063,0.29598 z m 0,-3.45316 q 0.39465,0 0.69063,-0.246654 0.29599,-0.295986 0.29599,-0.690633 0,-0.394647 -0.29599,-0.690632 -0.29598,-0.295986 -0.69063,-0.295986 -0.39464,0 -0.69063,0.295986 -0.24665,0.295985 -0.24665,0.690632 0,0.394647 0.24665,0.690633 0.29599,0.246654 0.69063,0.246654 z m 0,-3.206508 q 0.39465,0 0.69063,-0.295986 0.29599,-0.295985 0.29599,-0.690632 0,-0.394647 -0.29599,-0.641302 -0.29598,-0.295985 -0.69063,-0.295985 -0.93728,0 -0.93728,0.937287 0,0.394647 0.24665,0.690632 0.29599,0.295986 0.69063,0.295986 z m 0,-3.551825 q 0.39465,0 0.69063,-0.295985 0.29599,-0.295986 0.29599,-0.690633 0,-0.394647 -0.29599,-0.641301 -0.29598,-0.295986 -0.69063,-0.295986 -0.39464,0 -0.69063,0.295986 -0.24665,0.246654 -0.24665,0.641301 0,0.394647 0.24665,0.690633 0.29599,0.295985 0.69063,0.295985 z m 0,-3.551824 q 0.39465,0 0.69063,-0.246655 0.29599,-0.295985 0.29599,-0.690633 0,-0.394647 -0.29599,-0.690632 -0.29598,-0.295986 -0.69063,-0.295986 -0.39464,0 -0.69063,0.295986 -0.24665,0.295985 -0.24665,0.690632 0,0.394648 0.24665,0.690633 0.29599,0.246655 0.69063,0.246655 z m 0,-3.502494 q 0.39465,0 0.69063,-0.295986 0.29599,-0.295985 0.29599,-0.690632 0,-0.394647 -0.29599,-0.641302 -0.29598,-0.295985 -0.69063,-0.295985 -0.39464,0 -0.69063,0.295985 -0.24665,0.246655 -0.24665,0.641302 0,0.394647 0.24665,0.690632 0.29599,0.295986 0.69063,0.295986 z m 0,-3.502494 q 0.39465,0 0.69063,-0.246655 0.29599,-0.295985 0.29599,-0.690632 0,-0.394647 -0.29599,-0.690633 -0.29598,-0.295985 -0.69063,-0.295985 -0.39464,0 -0.69063,0.295985 -0.24665,0.295986 -0.24665,0.690633 0,0.937287 0.93728,0.937287 z m 2.21989,15.884549 q 0.39465,0 0.6413,-0.246654 0.29599,-0.295986 0.29599,-0.690633 0,-0.394647 -0.29599,-0.690632 -0.24665,-0.295986 -0.6413,-0.295986 -0.39464,0 -0.69063,0.295986 -0.29599,0.295985 -0.29599,0.690632 0,0.394647 0.29599,0.690633 0.29599,0.246654 0.69063,0.246654 z m 2.86119,0 q 0.39465,0 0.69064,-0.246654 0.29598,-0.295986 0.29598,-0.690633 0,-0.394647 -0.29598,-0.690632 -0.29599,-0.295986 -0.69064,-0.295986 -0.39464,0 -0.69063,0.295986 -0.24665,0.295985 -0.24665,0.690632 0,0.394647 0.24665,0.690633 0.29599,0.246654 0.69063,0.246654 z m 3.20651,-0.09866 q 0.39465,0 0.6413,-0.246654 0.29599,-0.295985 0.29599,-0.690633 0,-0.394647 -0.29599,-0.690632 -0.24665,-0.295986 -0.6413,-0.295986 -0.39464,0 -0.69063,0.295986 -0.29598,0.295985 -0.29598,0.690632 0,0.394648 0.29598,0.690633 0.29599,0.246654 0.69063,0.246654 z m 2.12123,11.346108 q 0.39465,0 0.6413,-0.29599 0.29599,-0.29598 0.29599,-0.69063 0,-0.39465 -0.29599,-0.6413 -0.24665,-0.29599 -0.6413,-0.29599 -0.39465,0 -0.69063,0.29599 -0.29599,0.24665 -0.29599,0.6413 0,0.39465 0.29599,0.69063 0.29598,0.29599 0.69063,0.29599 z m 0,-3.40383 q 0.39465,0 0.6413,-0.29599 0.29599,-0.29598 0.29599,-0.69063 0,-0.93729 -0.93729,-0.93729 -0.39465,0 -0.69063,0.29599 -0.29599,0.24665 -0.29599,0.6413 0,0.39465 0.29599,0.69063 0.29598,0.29599 0.69063,0.29599 z m 0,-2.95986 q 0.39465,0 0.6413,-0.29598 0.29599,-0.29599 0.29599,-0.69063 0,-0.93729 -0.93729,-0.93729 -0.39465,0 -0.69063,0.29598 -0.29599,0.24666 -0.29599,0.64131 0,0.39464 0.29599,0.69063 0.29598,0.29598 0.69063,0.29598 z m 0,-3.45316 q 0.39465,0 0.6413,-0.246654 0.29599,-0.295986 0.29599,-0.690633 0,-0.394647 -0.29599,-0.690632 -0.24665,-0.295986 -0.6413,-0.295986 -0.39465,0 -0.69063,0.295986 -0.29599,0.295985 -0.29599,0.690632 0,0.394647 0.29599,0.690633 0.29598,0.246654 0.69063,0.246654 z m 0,-3.206508 q 0.39465,0 0.6413,-0.295986 0.29599,-0.295985 0.29599,-0.690632 0,-0.937287 -0.93729,-0.937287 -0.39465,0 -0.69063,0.295985 -0.29599,0.246655 -0.29599,0.641302 0,0.394647 0.29599,0.690632 0.29598,0.295986 0.69063,0.295986 z m 0,-3.551825 q 0.39465,0 0.6413,-0.295985 0.29599,-0.295986 0.29599,-0.690633 0,-0.394647 -0.29599,-0.641301 -0.24665,-0.295986 -0.6413,-0.295986 -0.39465,0 -0.69063,0.295986 -0.29599,0.246654 -0.29599,0.641301 0,0.394647 0.29599,0.690633 0.29598,0.295985 0.69063,0.295985 z m 0,-3.551824 q 0.39465,0 0.6413,-0.246655 0.29599,-0.295985 0.29599,-0.690633 0,-0.394647 -0.29599,-0.690632 -0.24665,-0.295986 -0.6413,-0.295986 -0.39465,0 -0.69063,0.295986 -0.29599,0.295985 -0.29599,0.690632 0,0.394648 0.29599,0.690633 0.29598,0.246655 0.69063,0.246655 z m 0,-3.502494 q 0.39465,0 0.6413,-0.295986 0.29599,-0.295985 0.29599,-0.690632 0,-0.394647 -0.29599,-0.641302 -0.24665,-0.295985 -0.6413,-0.295985 -0.39465,0 -0.69063,0.295985 -0.29599,0.246655 -0.29599,0.641302 0,0.394647 0.29599,0.690632 0.29598,0.295986 0.69063,0.295986 z m 0,-3.502494 q 0.93729,0 0.93729,-0.937287 0,-0.394647 -0.29599,-0.690633 -0.24665,-0.295985 -0.6413,-0.295985 -0.39465,0 -0.69063,0.295985 -0.29599,0.295986 -0.29599,0.690633 0,0.394647 0.29599,0.690632 0.29598,0.246655 0.69063,0.246655 z m 0,2.170559 q 0.39465,0 0.39465,0.345317 0,0.394647 -0.39465,0.394647 -0.34531,0 -0.34531,-0.394647 0,-0.345317 0.34531,-0.345317 z"
           style="font-family:Broadway;-inkscape-font-specification:'Broadway, Normal'"
           id="path14981" />
      </g>
    </g>
  </g>
</svg>
